<svg width="512" height="512" viewBox="0 0 680 680" xmlns="http://www.w3.org/2000/svg">
  <defs>
    <clipPath id="badgeClip">
      <circle cx="340" cy="340" r="268"/>
    </clipPath>
  </defs>

  <!-- Outer stitched border ring -->
  <circle cx="340" cy="340" r="300" fill="none" stroke="#C8A84B" stroke-width="3" stroke-dasharray="6 5"/>
  <circle cx="340" cy="340" r="290" fill="#C8A84B"/>
  <circle cx="340" cy="340" r="282" fill="#0B1726"/>
  <circle cx="340" cy="340" r="275" fill="none" stroke="#C8A84B" stroke-width="2" stroke-dasharray="5 4"/>
  <circle cx="340" cy="340" r="268" fill="#0B1726"/>

  <g clip-path="url(#badgeClip)">
    <rect x="0" y="0" width="680" height="680" fill="#0B1726"/>
    <g stroke="#13213A" stroke-width="8" opacity="0.6">
      <line x1="80" y1="0" x2="0" y2="80"/><line x1="200" y1="0" x2="0" y2="200"/>
      <line x1="320" y1="0" x2="0" y2="320"/><line x1="440" y1="0" x2="0" y2="440"/>
      <line x1="560" y1="0" x2="0" y2="560"/><line x1="680" y1="0" x2="0" y2="680"/>
      <line x1="680" y1="120" x2="120" y2="680"/><line x1="680" y1="240" x2="240" y2="680"/>
      <line x1="680" y1="360" x2="360" y2="680"/><line x1="680" y1="480" x2="480" y2="680"/>
      <line x1="680" y1="600" x2="600" y2="680"/>
    </g>
    <rect x="72" y="390" width="536" height="52" fill="#B01C23"/>
    <rect x="72" y="238" width="536" height="52" fill="#B01C23"/>
    <rect x="72" y="390" width="536" height="3" fill="#E8DFC0"/>
    <rect x="72" y="439" width="536" height="3" fill="#E8DFC0"/>
    <rect x="72" y="238" width="536" height="3" fill="#E8DFC0"/>
    <rect x="72" y="287" width="536" height="3" fill="#E8DFC0"/>
    <g fill="#F0D060">
      <polygon points="150,416 153,407 156,416 165,416 158,421 161,430 153,425 146,430 149,421 142,416"/>
      <polygon points="205,416 208,407 211,416 220,416 213,421 216,430 208,425 201,430 204,421 197,416"/>
      <polygon points="260,416 263,407 266,416 275,416 268,421 271,430 263,425 256,430 259,421 252,416"/>
      <polygon points="340,416 343,407 346,416 355,416 348,421 351,430 343,425 336,430 339,421 332,416"/>
      <polygon points="420,416 423,407 426,416 435,416 428,421 431,430 423,425 416,430 419,421 412,416"/>
      <polygon points="475,416 478,407 481,416 490,416 483,421 486,430 478,425 471,430 474,421 467,416"/>
      <polygon points="530,416 533,407 536,416 545,416 538,421 541,430 533,425 526,430 529,421 522,416"/>
      <polygon points="150,264 153,255 156,264 165,264 158,269 161,278 153,273 146,278 149,269 142,264"/>
      <polygon points="230,264 233,255 236,264 245,264 238,269 241,278 233,273 226,278 229,269 222,264"/>
      <polygon points="310,264 313,255 316,264 325,264 318,269 321,278 313,273 306,278 309,269 302,264"/>
      <polygon points="390,264 393,255 396,264 405,264 398,269 401,278 393,273 386,278 389,269 382,264"/>
      <polygon points="470,264 473,255 476,264 485,264 478,269 481,278 473,273 466,278 469,269 462,264"/>
      <polygon points="530,264 533,255 536,264 545,264 538,269 541,278 533,273 526,278 529,269 522,264"/>
    </g>
    <g stroke="#C8A84B" stroke-width="1.5" fill="none" opacity="0.55">
      <circle cx="340" cy="330" r="90"/><circle cx="340" cy="330" r="55"/><circle cx="340" cy="330" r="12"/>
      <line x1="340" y1="220" x2="340" y2="268"/><line x1="340" y1="382" x2="340" y2="430"/>
      <line x1="230" y1="330" x2="278" y2="330"/><line x1="402" y1="330" x2="450" y2="330"/>
      <line x1="340" y1="239" x2="340" y2="248"/><line x1="340" y1="412" x2="340" y2="421"/>
      <line x1="249" y1="330" x2="258" y2="330"/><line x1="422" y1="330" x2="431" y2="330"/>
      <line x1="276" y1="266" x2="282" y2="272"/><line x1="398" y1="266" x2="404" y2="272"/>
      <line x1="276" y1="394" x2="282" y2="388"/><line x1="398" y1="394" x2="404" y2="388"/>
    </g>
    <g transform="translate(340,318) rotate(-22) scale(1.25)" fill="#D8D0B8">
      <ellipse cx="0" cy="0" rx="7" ry="58"/>
      <polygon points="-4,-58 4,-58 0,-90"/>
      <ellipse cx="0" cy="-32" rx="5.5" ry="14" fill="#1A3A6A"/>
      <ellipse cx="0" cy="-32" rx="4" ry="12" fill="#2B5EA7" opacity="0.8"/>
      <polygon points="0,-20 -68,18 -52,30 0,4"/>
      <polygon points="0,-20 68,18 52,30 0,4"/>
      <polygon points="0,-10 -68,18 -60,22 0,-2"/>
      <polygon points="0,-10 68,18 60,22 0,-2"/>
      <polygon points="-10,35 -32,58 -18,60 -8,44"/>
      <polygon points="10,35 32,58 18,60 8,44"/>
      <polygon points="-7,42 -34,55 -28,60 -6,50"/>
      <polygon points="7,42 34,55 28,60 6,50"/>
      <ellipse cx="-5" cy="52" rx="5" ry="8" fill="#8A8070"/>
      <ellipse cx="5" cy="52" rx="5" ry="8" fill="#8A8070"/>
      <ellipse cx="-5" cy="58" rx="4" ry="6" fill="#FF6600" opacity="0.85"/>
      <ellipse cx="5" cy="58" rx="4" ry="6" fill="#FF6600" opacity="0.85"/>
      <ellipse cx="-5" cy="58" rx="2" ry="3" fill="#FFCC00"/>
      <ellipse cx="5" cy="58" rx="2" ry="3" fill="#FFCC00"/>
      <rect x="-52" y="14" width="18" height="4" rx="2" fill="#8A8070"/>
      <polygon points="-52,16 -56,16 -54,12"/>
      <rect x="34" y="14" width="18" height="4" rx="2" fill="#8A8070"/>
      <polygon points="70,16 74,16 72,12"/>
    </g>
    <g opacity="0.7" transform="translate(340,318) rotate(-22)">
      <ellipse cx="-6" cy="93" rx="4" ry="16" fill="#FF4400"/>
      <ellipse cx="6" cy="93" rx="4" ry="16" fill="#FF4400"/>
      <ellipse cx="-6" cy="100" rx="2.5" ry="10" fill="#FF8800"/>
      <ellipse cx="6" cy="100" rx="2.5" ry="10" fill="#FF8800"/>
      <ellipse cx="-6" cy="105" rx="1.5" ry="6" fill="#FFCC00"/>
      <ellipse cx="6" cy="105" rx="1.5" ry="6" fill="#FFCC00"/>
    </g>
  </g>

  <path id="topArc" d="M 108 340 A 232 232 0 0 1 572 340" fill="none"/>
  <text font-family="'Arial Narrow',Arial,sans-serif" font-weight="900" font-size="26" fill="#F0D060" letter-spacing="4">
    <textPath href="#topArc" startOffset="50%" text-anchor="middle">REAY FAMILY BUDGET</textPath>
  </text>
  <path id="bottomArc" d="M 116 365 A 232 232 0 0 0 564 365" fill="none"/>
  <text font-family="'Arial Narrow',Arial,sans-serif" font-weight="900" font-size="28" fill="#F0D060" letter-spacing="6">
    <textPath href="#bottomArc" startOffset="50%" text-anchor="middle">&#9733; MAVERICK &#9733;</textPath>
  </text>
</svg>
